# MagicaVoxel @ Ephtracy

# group
o 

# material
mtllib misile.mtl
usemtl palette

# normals
vn -1 0 0
vn 1 0 0
vn 0 0 -1
vn 0 0 1
vn 0 -1 0
vn 0 1 0

# texcoords
vt 0.810547 0.5
vt 0.841797 0.5
vt 0.958984 0.5

# verts
v -2 0 -0.4
v -2 0 0.4
v -2 0.6 -0.4
v -2 0.6 0.4
v -0.5 0 -2
v -0.5 0 -0.4
v -0.5 0 0.4
v -0.5 0 2
v -0.5 0.6 -2
v -0.5 0.6 -0.4
v -0.5 0.6 0.4
v -0.5 0.6 2
v -0.5 4 -0.4
v -0.5 4 0.4
v 0.3 0 -2
v 0.3 0 -0.4
v 0.3 0 0.4
v 0.3 0 2
v 0.3 0.6 -2
v 0.3 0.6 -0.4
v 0.3 0.6 0.4
v 0.3 0.6 2
v 0.3 4 -0.4
v 0.3 4 0.4
v 2 0 -0.4
v 2 0 0.4
v 2 0.6 -0.4
v 2 0.6 0.4
v -0.5 0 -2
v -0.5 0.6 -2
v 0.3 0 -2
v 0.3 0.6 -2
v -2 0 -0.4
v -2 0.6 -0.4
v -0.5 0 -0.4
v -0.5 0.6 -0.4
v -0.5 4 -0.4
v 0.3 0 -0.4
v 0.3 0.6 -0.4
v 0.3 4 -0.4
v 2 0 -0.4
v 2 0.6 -0.4
v -2 0 0.4
v -2 0.6 0.4
v -0.5 0 0.4
v -0.5 0.6 0.4
v -0.5 4 0.4
v 0.3 0 0.4
v 0.3 0.6 0.4
v 0.3 4 0.4
v 2 0 0.4
v 2 0.6 0.4
v -0.5 0 2
v -0.5 0.6 2
v 0.3 0 2
v 0.3 0.6 2
v -0.5 0 -2
v 0.3 0 -2
v -2 0 -0.4
v -0.5 0 -0.4
v 0.3 0 -0.4
v 2 0 -0.4
v -2 0 0.4
v -0.5 0 0.4
v 0.3 0 0.4
v 2 0 0.4
v -0.5 0 2
v 0.3 0 2
v -0.5 0.6 -2
v 0.3 0.6 -2
v -2 0.6 -0.4
v -0.5 0.6 -0.4
v 0.3 0.6 -0.4
v 2 0.6 -0.4
v -2 0.6 0.4
v -0.5 0.6 0.4
v 0.3 0.6 0.4
v 2 0.6 0.4
v -0.5 0.6 2
v 0.3 0.6 2
v -0.5 4 -0.4
v 0.3 4 -0.4
v -0.5 4 0.4
v 0.3 4 0.4

# faces
f 1/2/1 2/2/1 3/2/1
f 3/2/1 2/2/1 4/2/1
f 5/2/1 6/2/1 9/2/1
f 9/2/1 6/2/1 10/2/1
f 7/2/1 8/2/1 11/2/1
f 11/2/1 8/2/1 12/2/1
f 10/3/1 11/3/1 13/3/1
f 13/3/1 11/3/1 14/3/1
f 19/2/2 16/2/2 15/2/2
f 20/2/2 16/2/2 19/2/2
f 21/2/2 18/2/2 17/2/2
f 22/2/2 18/2/2 21/2/2
f 23/3/2 21/3/2 20/3/2
f 24/3/2 21/3/2 23/3/2
f 27/2/2 26/2/2 25/2/2
f 28/2/2 26/2/2 27/2/2
f 29/2/3 30/2/3 31/2/3
f 31/2/3 30/2/3 32/2/3
f 33/2/3 34/2/3 35/2/3
f 35/2/3 34/2/3 36/2/3
f 36/3/3 37/3/3 39/3/3
f 39/3/3 37/3/3 40/3/3
f 38/2/3 39/2/3 41/2/3
f 41/2/3 39/2/3 42/2/3
f 45/2/4 44/2/4 43/2/4
f 46/2/4 44/2/4 45/2/4
f 49/3/4 47/3/4 46/3/4
f 50/3/4 47/3/4 49/3/4
f 51/2/4 49/2/4 48/2/4
f 52/2/4 49/2/4 51/2/4
f 55/2/4 54/2/4 53/2/4
f 56/2/4 54/2/4 55/2/4
f 57/2/5 58/2/5 60/2/5
f 60/2/5 58/2/5 61/2/5
f 59/2/5 60/2/5 63/2/5
f 61/2/5 62/2/5 63/2/5
f 60/2/5 61/2/5 63/2/5
f 63/2/5 62/2/5 64/2/5
f 64/2/5 62/2/5 65/2/5
f 65/2/5 62/2/5 66/2/5
f 64/2/5 65/2/5 67/2/5
f 67/2/5 65/2/5 68/2/5
f 72/2/6 70/2/6 69/2/6
f 73/2/6 70/2/6 72/2/6
f 75/2/6 72/2/6 71/2/6
f 76/2/6 72/2/6 75/2/6
f 77/2/6 74/2/6 73/2/6
f 78/2/6 74/2/6 77/2/6
f 79/2/6 77/2/6 76/2/6
f 80/2/6 77/2/6 79/2/6
f 83/3/6 82/3/6 81/3/6
f 84/3/6 82/3/6 83/3/6
